<svg id="Calque_1" data-name="Calque 1" xmlns="http://www.w3.org/2000/svg" viewBox="0 0 200 200"><title>3</title><path d="M49.75,161.17c7,4.49,23.24,11.49,40.32,11.49,31.64,0,41.44-20.16,41.16-35.28C131,111.9,108,101,84.19,101H70.47V82.5H84.19c17.92,0,40.6-9.25,40.6-30.8,0-14.56-9.24-27.44-31.92-27.44-14.56,0-28.56,6.44-36.4,12L50,18.38c9.52-7,28-14,47.6-14,35.84,0,52.08,21.28,52.08,43.4,0,18.76-11.2,34.72-33.6,42.84v.55c22.4,4.48,40.6,21.29,40.6,46.77,0,29.11-22.68,54.6-66.36,54.6-20.44,0-38.36-6.45-47.32-12.33Z"/></svg>