<svg id="Calque_1" data-name="Calque 1" xmlns="http://www.w3.org/2000/svg" viewBox="0 0 200 200"><title>6</title><path d="M147.75,24.82a89,89,0,0,0-18.48,1.12C90.63,32.38,70.19,60.66,66,90.62h.84c8.68-11.48,23.8-21,44-21,32.2,0,54.88,23.23,54.88,58.8,0,33.32-22.68,64.12-60.48,64.12-38.92,0-64.4-30.25-64.4-77.56,0-35.84,12.88-64.13,30.8-82C86.71,18.1,106.87,8.86,129.83,6.06a118.3,118.3,0,0,1,17.92-1.4Zm-7,105c0-26-14.84-41.72-37.52-41.72-14.84,0-28.56,9.23-35.28,22.4a21,21,0,0,0-2.8,10.92c.56,30,14.28,52.08,40,52.08C126.47,173.5,140.75,155.86,140.75,129.82Z"/></svg>