<svg id="Calque_1" data-name="Calque 1" xmlns="http://www.w3.org/2000/svg" viewBox="0 0 200 200"><title>8</title><path d="M41.63,143.25c0-23,13.72-39.19,36.12-48.71l-.28-.85C57.31,84.18,48.63,68.5,48.63,52.81,48.63,24,73,4.38,104.91,4.38c35.28,0,52.92,22.12,52.92,44.8,0,15.4-7.56,31.92-30,42.55v.85c22.68,9,36.68,24.92,36.68,47,0,31.63-27.16,52.92-61.88,52.92C64.59,192.54,41.63,169.85,41.63,143.25Zm98-1.12c0-22.11-15.4-32.75-40-39.75-21.28,6.16-32.76,20.16-32.76,37.52C66,158.38,80,174.62,103.23,174.62,125.35,174.62,139.63,160.89,139.63,142.13Zm-67.76-91c0,18.19,13.72,28,34.72,33.59,15.68-5.31,27.72-16.51,27.72-33,0-14.56-8.68-29.68-30.8-29.68C83.07,22,71.87,35.46,71.87,51.14Z"/></svg>