<svg id="Calque_1" data-name="Calque 1" xmlns="http://www.w3.org/2000/svg" viewBox="0 0 200 200"><title>9</title><path d="M58.15,172.09c5.32.57,11.48,0,19.88-.84,14.28-2,27.72-7.83,38.08-17.63,12-10.92,20.72-26.88,24.08-48.45h-.84c-10.08,12.33-24.64,19.61-42.84,19.61-32.76,0-53.76-24.65-53.76-55.72,0-34.44,24.92-64.68,62.16-64.68s60.2,30.24,60.2,76.72c0,40-13.44,68-31.36,85.4-14,13.71-33.32,22.12-52.92,24.35a114,114,0,0,1-22.68,1.4Zm9-104.71c0,22.68,13.72,38.64,35,38.64,16.52,0,29.4-8.12,35.84-19a16.29,16.29,0,0,0,2.24-9c0-31.08-11.48-54.88-37.24-54.88C82,23.14,67.11,41.62,67.11,67.38Z"/></svg>