<svg id="Calque_1" data-name="Calque 1" xmlns="http://www.w3.org/2000/svg" viewBox="0 0 200 200"><title>0°</title><path d="M77.82,102.64c0,33.15-12.3,51.45-33.9,51.45-19,0-31.95-17.85-32.25-50.1,0-32.69,14.1-50.69,33.9-50.69C66.12,53.3,77.82,71.6,77.82,102.64Zm-52.95,1.5c0,25.35,7.8,39.75,19.8,39.75,13.5,0,20-15.75,20-40.65,0-24-6.15-39.74-19.8-39.74C33.27,63.5,24.87,77.59,24.87,104.14Z"/><path d="M123.57,69.2a19.9,19.9,0,0,1-20.1,20.09c-11.7,0-19.65-8.85-19.65-19.34a19.73,19.73,0,0,1,20-20.25C116.07,49.7,123.57,59,123.57,69.2ZM91.92,70c0,6.9,5.1,12.29,11.7,12.29s11.85-5.55,11.85-12.89c0-5.55-3.3-12.6-11.85-12.6C95.82,56.75,91.92,63.5,91.92,70Z"/></svg>