<svg id="Calque_1" data-name="Calque 1" xmlns="http://www.w3.org/2000/svg" viewBox="0 0 200 200"><title>10°</title><path d="M41.67,67.25h-.3L24.42,76.4,21.87,66.35,43.17,55H54.42v97.49H41.67Z"/><path d="M151,102.64c0,33.15-12.3,51.45-33.9,51.45-19.05,0-31.95-17.85-32.25-50.1,0-32.69,14.1-50.69,33.9-50.69C139.32,53.3,151,71.6,151,102.64Zm-53,1.5c0,25.35,7.8,39.75,19.8,39.75,13.5,0,19.95-15.75,19.95-40.65,0-24-6.15-39.74-19.8-39.74C106.47,63.5,98.07,77.59,98.07,104.14Z"/><path d="M196.77,69.2a19.9,19.9,0,0,1-20.1,20.09C165,89.29,157,80.44,157,70A19.73,19.73,0,0,1,177,49.7C189.27,49.7,196.77,59,196.77,69.2ZM165.12,70c0,6.9,5.1,12.29,11.7,12.29,6.75,0,11.85-5.55,11.85-12.89,0-5.55-3.3-12.6-11.85-12.6C169,56.75,165.12,63.5,165.12,70Z"/></svg>