<svg id="Calque_1" data-name="Calque 1" xmlns="http://www.w3.org/2000/svg" viewBox="0 0 200 200"><title>19°</title><path d="M41.67,67.25h-.3L24.42,76.4,21.87,66.35,43.17,55H54.42v97.49H41.67Z"/><path d="M93.87,143.14a55.08,55.08,0,0,0,10.65-.45,36.78,36.78,0,0,0,20.4-9.45c6.45-5.85,11.1-14.4,12.9-25.95h-.45c-5.4,6.6-13.2,10.5-23,10.5-17.55,0-28.8-13.2-28.8-29.85C85.62,69.5,99,53.3,118.92,53.3s32.25,16.2,32.25,41.09c0,21.45-7.2,36.45-16.8,45.75-7.5,7.35-17.85,11.85-28.35,13.05a61.48,61.48,0,0,1-12.15.75ZM98.67,87c0,12.15,7.35,20.7,18.75,20.7,8.85,0,15.75-4.35,19.2-10.2a8.71,8.71,0,0,0,1.2-4.8c0-16.64-6.15-29.39-19.95-29.39C106.62,63.35,98.67,73.25,98.67,87Z"/><path d="M196.77,69.2a19.9,19.9,0,0,1-20.1,20.09C165,89.29,157,80.44,157,70A19.73,19.73,0,0,1,177,49.7C189.27,49.7,196.77,59,196.77,69.2ZM165.12,70c0,6.9,5.1,12.29,11.7,12.29,6.75,0,11.85-5.55,11.85-12.89,0-5.55-3.3-12.6-11.85-12.6C169,56.75,165.12,63.5,165.12,70Z"/></svg>