<svg id="Calque_1" data-name="Calque 1" xmlns="http://www.w3.org/2000/svg" viewBox="0 0 200 200"><title>2°</title><path d="M13,152.44v-8.1l10.35-10.05c24.9-23.7,36.15-36.3,36.3-51,0-9.89-4.8-19-19.35-19-8.85,0-16.2,4.5-20.7,8.25l-4.2-9.3A42.78,42.78,0,0,1,43,53.3c21,0,29.85,14.4,29.85,28.35,0,18-13.05,32.54-33.6,52.34l-7.8,7.2v.3h43.8v10.95Z"/><path d="M123.57,69.2a19.9,19.9,0,0,1-20.1,20.09c-11.7,0-19.65-8.85-19.65-19.34a19.73,19.73,0,0,1,20-20.25C116.07,49.7,123.57,59,123.57,69.2ZM91.92,70c0,6.9,5.1,12.29,11.7,12.29s11.85-5.55,11.85-12.89c0-5.55-3.3-12.6-11.85-12.6C95.82,56.75,91.92,63.5,91.92,70Z"/></svg>