<svg id="Calque_1" data-name="Calque 1" xmlns="http://www.w3.org/2000/svg" viewBox="0 0 200 200"><title>3°</title><path d="M16.17,137.29a44.12,44.12,0,0,0,21.6,6.15c16.95,0,22.2-10.8,22-18.9-.15-13.65-12.45-19.5-25.2-19.5H27.27v-9.9h7.35c9.6,0,21.75-5,21.75-16.49,0-7.8-4.95-14.7-17.1-14.7a35.81,35.81,0,0,0-19.5,6.45l-3.45-9.6c5.1-3.75,15-7.5,25.5-7.5,19.2,0,27.9,11.4,27.9,23.24,0,10-6,18.6-18,22.95v.3c12,2.4,21.75,11.4,21.75,25,0,15.6-12.15,29.25-35.55,29.25-11,0-20.55-3.45-25.35-6.6Z"/><path d="M123.57,69.2a19.9,19.9,0,0,1-20.1,20.09c-11.7,0-19.65-8.85-19.65-19.34a19.73,19.73,0,0,1,20-20.25C116.07,49.7,123.57,59,123.57,69.2ZM91.92,70c0,6.9,5.1,12.29,11.7,12.29s11.85-5.55,11.85-12.89c0-5.55-3.3-12.6-11.85-12.6C95.82,56.75,91.92,63.5,91.92,70Z"/></svg>