<svg id="Calque_1" data-name="Calque 1" xmlns="http://www.w3.org/2000/svg" viewBox="0 0 200 200"><title>5°</title><path d="M71.22,66.05H34l-3.75,25a52.13,52.13,0,0,1,8-.6c7.5,0,15,1.65,21,5.25,7.65,4.35,14,12.75,14,25.05,0,19-15.15,33.3-36.3,33.3-10.65,0-19.65-3-24.3-6L15.87,138a43.66,43.66,0,0,0,20.85,5.4c12.45,0,23.1-8.1,23.1-21.15-.15-12.6-8.55-21.6-28-21.6a100.86,100.86,0,0,0-13.5,1L24.57,55H71.22Z"/><path d="M123.57,69.2a19.9,19.9,0,0,1-20.1,20.09c-11.7,0-19.65-8.85-19.65-19.34a19.73,19.73,0,0,1,20-20.25C116.07,49.7,123.57,59,123.57,69.2ZM91.92,70c0,6.9,5.1,12.29,11.7,12.29s11.85-5.55,11.85-12.89c0-5.55-3.3-12.6-11.85-12.6C95.82,56.75,91.92,63.5,91.92,70Z"/></svg>