<svg id="Calque_1" data-name="Calque 1" xmlns="http://www.w3.org/2000/svg" viewBox="0 0 200 200"><title>6°</title><path d="M68.67,64.25a47.66,47.66,0,0,0-9.9.6c-20.7,3.45-31.65,18.59-33.9,34.64h.45A29.05,29.05,0,0,1,48.87,88.24c17.25,0,29.4,12.45,29.4,31.5,0,17.85-12.15,34.35-32.4,34.35-20.85,0-34.5-16.2-34.5-41.55,0-19.2,6.9-34.35,16.5-43.94,8.1-7.95,18.9-12.9,31.2-14.4a63.38,63.38,0,0,1,9.6-.75Zm-3.75,56.24c0-13.95-8-22.35-20.1-22.35-8,0-15.3,5-18.9,12a11.24,11.24,0,0,0-1.5,5.85c.3,16,7.65,27.9,21.45,27.9C57.27,143.89,64.92,134.44,64.92,120.49Z"/><path d="M123.57,69.2a19.9,19.9,0,0,1-20.1,20.09c-11.7,0-19.65-8.85-19.65-19.34a19.73,19.73,0,0,1,20-20.25C116.07,49.7,123.57,59,123.57,69.2ZM91.92,70c0,6.9,5.1,12.29,11.7,12.29s11.85-5.55,11.85-12.89c0-5.55-3.3-12.6-11.85-12.6C95.82,56.75,91.92,63.5,91.92,70Z"/></svg>