<svg id="Calque_1" data-name="Calque 1" xmlns="http://www.w3.org/2000/svg" viewBox="0 0 200 200"><title>9°</title><path d="M20.67,143.14a55.08,55.08,0,0,0,10.65-.45,36.78,36.78,0,0,0,20.4-9.45c6.45-5.85,11.1-14.4,12.9-25.95h-.45c-5.4,6.6-13.2,10.5-23,10.5-17.55,0-28.8-13.2-28.8-29.85,0-18.44,13.35-34.64,33.3-34.64S78,69.5,78,94.39c0,21.45-7.2,36.45-16.8,45.75-7.5,7.35-17.85,11.85-28.35,13.05a61.48,61.48,0,0,1-12.15.75ZM25.47,87c0,12.15,7.35,20.7,18.75,20.7,8.85,0,15.75-4.35,19.2-10.2a8.71,8.71,0,0,0,1.2-4.8c0-16.64-6.15-29.39-20-29.39C33.42,63.35,25.47,73.25,25.47,87Z"/><path d="M123.57,69.2a19.9,19.9,0,0,1-20.1,20.09c-11.7,0-19.65-8.85-19.65-19.34a19.73,19.73,0,0,1,20-20.25C116.07,49.7,123.57,59,123.57,69.2ZM91.92,70c0,6.9,5.1,12.29,11.7,12.29s11.85-5.55,11.85-12.89c0-5.55-3.3-12.6-11.85-12.6C95.82,56.75,91.92,63.5,91.92,70Z"/></svg>