<svg id="Calque_1" data-name="Calque 1" xmlns="http://www.w3.org/2000/svg" viewBox="0 0 200 200"><title>11°</title><path d="M41.67,67.25h-.3L24.42,76.4,21.87,66.35,43.17,55H54.42v97.49H41.67Z"/><path d="M114.87,67.25h-.3L97.62,76.4,95.07,66.35,116.37,55h11.25v97.49H114.87Z"/><path d="M196.77,69.2a19.9,19.9,0,0,1-20.1,20.09C165,89.29,157,80.44,157,70A19.73,19.73,0,0,1,177,49.7C189.27,49.7,196.77,59,196.77,69.2ZM165.12,70c0,6.9,5.1,12.29,11.7,12.29,6.75,0,11.85-5.55,11.85-12.89,0-5.55-3.3-12.6-11.85-12.6C169,56.75,165.12,63.5,165.12,70Z"/></svg>