<svg id="Calque_1" data-name="Calque 1" xmlns="http://www.w3.org/2000/svg" viewBox="0 0 200 200"><title>26°</title><path d="M13,152.44v-8.1l10.35-10.05c24.9-23.7,36.15-36.3,36.3-51,0-9.89-4.8-19-19.35-19-8.85,0-16.2,4.5-20.7,8.25l-4.2-9.3A42.78,42.78,0,0,1,43,53.3c21,0,29.85,14.4,29.85,28.35,0,18-13.05,32.54-33.6,52.34l-7.8,7.2v.3h43.8v10.95Z"/><path d="M141.87,64.25a47.66,47.66,0,0,0-9.9.6c-20.7,3.45-31.65,18.59-33.9,34.64h.45a29.05,29.05,0,0,1,23.55-11.25c17.25,0,29.4,12.45,29.4,31.5,0,17.85-12.15,34.35-32.4,34.35-20.85,0-34.5-16.2-34.5-41.55,0-19.2,6.9-34.35,16.5-43.94,8.1-7.95,18.9-12.9,31.2-14.4a63.38,63.38,0,0,1,9.6-.75Zm-3.75,56.24c0-13.95-8-22.35-20.1-22.35-8,0-15.3,5-18.9,12a11.24,11.24,0,0,0-1.5,5.85c.3,16,7.65,27.9,21.45,27.9C130.47,143.89,138.12,134.44,138.12,120.49Z"/><path d="M196.77,69.2a19.9,19.9,0,0,1-20.1,20.09C165,89.29,157,80.44,157,70A19.73,19.73,0,0,1,177,49.7C189.27,49.7,196.77,59,196.77,69.2ZM165.12,70c0,6.9,5.1,12.29,11.7,12.29,6.75,0,11.85-5.55,11.85-12.89,0-5.55-3.3-12.6-11.85-12.6C169,56.75,165.12,63.5,165.12,70Z"/></svg>