<svg id="Calque_1" data-name="Calque 1" xmlns="http://www.w3.org/2000/svg" viewBox="0 0 200 200"><title>8°</title><path d="M11.82,127.69c0-12.3,7.35-21,19.35-26.1l-.15-.45c-10.8-5.1-15.45-13.5-15.45-21.9,0-15.44,13.05-25.94,30.15-25.94,18.9,0,28.35,11.85,28.35,24,0,8.25-4,17.1-16,22.8v.45c12.15,4.8,19.65,13.35,19.65,25.2,0,17-14.55,28.35-33.15,28.35C24.12,154.09,11.82,141.94,11.82,127.69Zm52.5-.6c0-11.85-8.25-17.55-21.45-21.3-11.4,3.3-17.55,10.8-17.55,20.1-.45,9.9,7,18.6,19.5,18.6C56.67,144.49,64.32,137.14,64.32,127.09ZM28,78.34c0,9.75,7.35,15,18.6,18,8.4-2.85,14.85-8.85,14.85-17.69,0-7.8-4.65-15.9-16.5-15.9C34,62.75,28,70,28,78.34Z"/><path d="M123.57,69.2a19.9,19.9,0,0,1-20.1,20.09c-11.7,0-19.65-8.85-19.65-19.34a19.73,19.73,0,0,1,20-20.25C116.07,49.7,123.57,59,123.57,69.2ZM91.92,70c0,6.9,5.1,12.29,11.7,12.29s11.85-5.55,11.85-12.89c0-5.55-3.3-12.6-11.85-12.6C95.82,56.75,91.92,63.5,91.92,70Z"/></svg>