<svg id="Calque_1" data-name="Calque 1" xmlns="http://www.w3.org/2000/svg" viewBox="0 0 200 200"><title>4°</title><path d="M53.82,152.44V125.89H8.52v-8.7L52,55H66.27v60.59H79.92v10.35H66.27v26.55Zm0-36.9V83c0-5.09.15-10.2.45-15.29h-.45c-3,5.7-5.4,9.89-8.1,14.39L21.87,115.24v.3Z"/><path d="M123.57,69.2a19.9,19.9,0,0,1-20.1,20.09c-11.7,0-19.65-8.85-19.65-19.34a19.73,19.73,0,0,1,20-20.25C116.07,49.7,123.57,59,123.57,69.2ZM91.92,70c0,6.9,5.1,12.29,11.7,12.29s11.85-5.55,11.85-12.89c0-5.55-3.3-12.6-11.85-12.6C95.82,56.75,91.92,63.5,91.92,70Z"/></svg>