<svg id="Calque_1" data-name="Calque 1" xmlns="http://www.w3.org/2000/svg" viewBox="0 0 200 200"><title>min02</title><path d="M77.82,102.64c0,33.15-12.3,51.45-33.9,51.45-19,0-31.95-17.85-32.25-50.1,0-32.69,14.1-50.69,33.9-50.69C66.12,53.3,77.82,71.6,77.82,102.64Zm-52.95,1.5c0,25.35,7.8,39.75,19.8,39.75,13.5,0,20-15.75,20-40.65,0-24-6.15-39.74-19.8-39.74C33.27,63.5,24.87,77.59,24.87,104.14Z"/><path d="M86.22,152.44v-8.1l10.35-10.05c24.9-23.7,36.15-36.3,36.3-51,0-9.89-4.8-19-19.35-19-8.85,0-16.2,4.5-20.7,8.25l-4.2-9.3a42.78,42.78,0,0,1,27.6-9.9c21,0,29.85,14.4,29.85,28.35,0,18-13,32.54-33.6,52.34l-7.8,7.2v.3h43.8v10.95Z"/><path d="M180.27,49.7c-3.45,12.6-9.9,28.64-14.1,35.54l-8.4,1.05c3.3-8.85,7.2-24.44,8.85-35.24Z"/></svg>