<svg id="Calque_1" data-name="Calque 1" xmlns="http://www.w3.org/2000/svg" viewBox="0 0 200 200"><title>min06</title><path d="M77.82,102.64c0,33.15-12.3,51.45-33.9,51.45-19,0-31.95-17.85-32.25-50.1,0-32.69,14.1-50.69,33.9-50.69C66.12,53.3,77.82,71.6,77.82,102.64Zm-52.95,1.5c0,25.35,7.8,39.75,19.8,39.75,13.5,0,20-15.75,20-40.65,0-24-6.15-39.74-19.8-39.74C33.27,63.5,24.87,77.59,24.87,104.14Z"/><path d="M141.87,64.25a47.66,47.66,0,0,0-9.9.6c-20.7,3.45-31.65,18.59-33.9,34.64h.45a29.05,29.05,0,0,1,23.55-11.25c17.25,0,29.4,12.45,29.4,31.5,0,17.85-12.15,34.35-32.4,34.35-20.85,0-34.5-16.2-34.5-41.55,0-19.2,6.9-34.35,16.5-43.94,8.1-7.95,18.9-12.9,31.2-14.4a63.38,63.38,0,0,1,9.6-.75Zm-3.75,56.24c0-13.95-8-22.35-20.1-22.35-8,0-15.3,5-18.9,12a11.24,11.24,0,0,0-1.5,5.85c.3,16,7.65,27.9,21.45,27.9C130.47,143.89,138.12,134.44,138.12,120.49Z"/><path d="M180.27,49.7c-3.45,12.6-9.9,28.64-14.1,35.54l-8.4,1.05c3.3-8.85,7.2-24.44,8.85-35.24Z"/></svg>