<svg id="Calque_1" data-name="Calque 1" xmlns="http://www.w3.org/2000/svg" viewBox="0 0 200 200"><title>min01</title><path d="M77.82,102.64c0,33.15-12.3,51.45-33.9,51.45-19,0-31.95-17.85-32.25-50.1,0-32.69,14.1-50.69,33.9-50.69C66.12,53.3,77.82,71.6,77.82,102.64Zm-52.95,1.5c0,25.35,7.8,39.75,19.8,39.75,13.5,0,20-15.75,20-40.65,0-24-6.15-39.74-19.8-39.74C33.27,63.5,24.87,77.59,24.87,104.14Z"/><path d="M114.87,67.25h-.3L97.62,76.4,95.07,66.35,116.37,55h11.25v97.49H114.87Z"/><path d="M180.27,49.7c-3.45,12.6-9.9,28.64-14.1,35.54l-8.4,1.05c3.3-8.85,7.2-24.44,8.85-35.24Z"/></svg>