<svg id="Calque_1" data-name="Calque 1" xmlns="http://www.w3.org/2000/svg" viewBox="0 0 200 200"><title>min12</title><path d="M41.67,67.25h-.3L24.42,76.4,21.87,66.35,43.17,55H54.42v97.49H41.67Z"/><path d="M86.22,152.44v-8.1l10.35-10.05c24.9-23.7,36.15-36.3,36.3-51,0-9.89-4.8-19-19.35-19-8.85,0-16.2,4.5-20.7,8.25l-4.2-9.3a42.78,42.78,0,0,1,27.6-9.9c21,0,29.85,14.4,29.85,28.35,0,18-13,32.54-33.6,52.34l-7.8,7.2v.3h43.8v10.95Z"/><path d="M180.27,49.7c-3.45,12.6-9.9,28.64-14.1,35.54l-8.4,1.05c3.3-8.85,7.2-24.44,8.85-35.24Z"/></svg>