<svg id="Calque_1" data-name="Calque 1" xmlns="http://www.w3.org/2000/svg" viewBox="0 0 200 200"><title>min24</title><path d="M13,152.44v-8.1l10.35-10.05c24.9-23.7,36.15-36.3,36.3-51,0-9.89-4.8-19-19.35-19-8.85,0-16.2,4.5-20.7,8.25l-4.2-9.3A42.78,42.78,0,0,1,43,53.3c21,0,29.85,14.4,29.85,28.35,0,18-13.05,32.54-33.6,52.34l-7.8,7.2v.3h43.8v10.95Z"/><path d="M127,152.44V125.89H81.72v-8.7L125.22,55h14.25v60.59h13.65v10.35H139.47v26.55Zm0-36.9V83c0-5.09.15-10.2.45-15.29H127c-3,5.7-5.4,9.89-8.1,14.39L95.07,115.24v.3Z"/><path d="M180.27,49.7c-3.45,12.6-9.9,28.64-14.1,35.54l-8.4,1.05c3.3-8.85,7.2-24.44,8.85-35.24Z"/></svg>