<svg id="Calque_1" data-name="Calque 1" xmlns="http://www.w3.org/2000/svg" viewBox="0 0 200 200"><title>min28</title><path d="M13,152.44v-8.1l10.35-10.05c24.9-23.7,36.15-36.3,36.3-51,0-9.89-4.8-19-19.35-19-8.85,0-16.2,4.5-20.7,8.25l-4.2-9.3A42.78,42.78,0,0,1,43,53.3c21,0,29.85,14.4,29.85,28.35,0,18-13.05,32.54-33.6,52.34l-7.8,7.2v.3h43.8v10.95Z"/><path d="M85,127.69c0-12.3,7.35-21,19.35-26.1l-.15-.45c-10.8-5.1-15.45-13.5-15.45-21.9,0-15.44,13-25.94,30.15-25.94,18.9,0,28.35,11.85,28.35,24,0,8.25-4.05,17.1-16.05,22.8v.45c12.15,4.8,19.65,13.35,19.65,25.2,0,17-14.55,28.35-33.15,28.35C97.32,154.09,85,141.94,85,127.69Zm52.5-.6c0-11.85-8.25-17.55-21.45-21.3-11.4,3.3-17.55,10.8-17.55,20.1-.45,9.9,7,18.6,19.5,18.6C129.87,144.49,137.52,137.14,137.52,127.09Zm-36.3-48.75c0,9.75,7.35,15,18.6,18,8.4-2.85,14.85-8.85,14.85-17.69,0-7.8-4.65-15.9-16.5-15.9C107.22,62.75,101.22,70,101.22,78.34Z"/><path d="M180.27,49.7c-3.45,12.6-9.9,28.64-14.1,35.54l-8.4,1.05c3.3-8.85,7.2-24.44,8.85-35.24Z"/></svg>