<svg id="Calque_1" data-name="Calque 1" xmlns="http://www.w3.org/2000/svg" viewBox="0 0 200 200"><title>min36</title><path d="M16.17,137.29a44.12,44.12,0,0,0,21.6,6.15c16.95,0,22.2-10.8,22-18.9-.15-13.65-12.45-19.5-25.2-19.5H27.27v-9.9h7.35c9.6,0,21.75-5,21.75-16.49,0-7.8-4.95-14.7-17.1-14.7a35.81,35.81,0,0,0-19.5,6.45l-3.45-9.6c5.1-3.75,15-7.5,25.5-7.5,19.2,0,27.9,11.4,27.9,23.24,0,10-6,18.6-18,22.95v.3c12,2.4,21.75,11.4,21.75,25,0,15.6-12.15,29.25-35.55,29.25-11,0-20.55-3.45-25.35-6.6Z"/><path d="M141.87,64.25a47.66,47.66,0,0,0-9.9.6c-20.7,3.45-31.65,18.59-33.9,34.64h.45a29.05,29.05,0,0,1,23.55-11.25c17.25,0,29.4,12.45,29.4,31.5,0,17.85-12.15,34.35-32.4,34.35-20.85,0-34.5-16.2-34.5-41.55,0-19.2,6.9-34.35,16.5-43.94,8.1-7.95,18.9-12.9,31.2-14.4a63.38,63.38,0,0,1,9.6-.75Zm-3.75,56.24c0-13.95-8-22.35-20.1-22.35-8,0-15.3,5-18.9,12a11.24,11.24,0,0,0-1.5,5.85c.3,16,7.65,27.9,21.45,27.9C130.47,143.89,138.12,134.44,138.12,120.49Z"/><path d="M180.27,49.7c-3.45,12.6-9.9,28.64-14.1,35.54l-8.4,1.05c3.3-8.85,7.2-24.44,8.85-35.24Z"/></svg>