<svg id="Calque_1" data-name="Calque 1" xmlns="http://www.w3.org/2000/svg" viewBox="0 0 200 200"><title>min39</title><path d="M16.17,137.29a44.12,44.12,0,0,0,21.6,6.15c16.95,0,22.2-10.8,22-18.9-.15-13.65-12.45-19.5-25.2-19.5H27.27v-9.9h7.35c9.6,0,21.75-5,21.75-16.49,0-7.8-4.95-14.7-17.1-14.7a35.81,35.81,0,0,0-19.5,6.45l-3.45-9.6c5.1-3.75,15-7.5,25.5-7.5,19.2,0,27.9,11.4,27.9,23.24,0,10-6,18.6-18,22.95v.3c12,2.4,21.75,11.4,21.75,25,0,15.6-12.15,29.25-35.55,29.25-11,0-20.55-3.45-25.35-6.6Z"/><path d="M93.87,143.14a55.08,55.08,0,0,0,10.65-.45,36.78,36.78,0,0,0,20.4-9.45c6.45-5.85,11.1-14.4,12.9-25.95h-.45c-5.4,6.6-13.2,10.5-23,10.5-17.55,0-28.8-13.2-28.8-29.85C85.62,69.5,99,53.3,118.92,53.3s32.25,16.2,32.25,41.09c0,21.45-7.2,36.45-16.8,45.75-7.5,7.35-17.85,11.85-28.35,13.05a61.48,61.48,0,0,1-12.15.75ZM98.67,87c0,12.15,7.35,20.7,18.75,20.7,8.85,0,15.75-4.35,19.2-10.2a8.71,8.71,0,0,0,1.2-4.8c0-16.64-6.15-29.39-19.95-29.39C106.62,63.35,98.67,73.25,98.67,87Z"/><path d="M180.27,49.7c-3.45,12.6-9.9,28.64-14.1,35.54l-8.4,1.05c3.3-8.85,7.2-24.44,8.85-35.24Z"/></svg>