<svg id="Calque_1" data-name="Calque 1" xmlns="http://www.w3.org/2000/svg" viewBox="0 0 200 200"><title>min43</title><path d="M53.82,152.44V125.89H8.52v-8.7L52,55H66.27v60.59H79.92v10.35H66.27v26.55Zm0-36.9V83c0-5.09.15-10.2.45-15.29h-.45c-3,5.7-5.4,9.89-8.1,14.39L21.87,115.24v.3Z"/><path d="M89.37,137.29a44.12,44.12,0,0,0,21.6,6.15c17,0,22.2-10.8,22.05-18.9-.15-13.65-12.45-19.5-25.2-19.5h-7.35v-9.9h7.35c9.6,0,21.75-5,21.75-16.49,0-7.8-4.95-14.7-17.1-14.7A35.81,35.81,0,0,0,93,70.4l-3.45-9.6c5.1-3.75,15-7.5,25.5-7.5,19.2,0,27.9,11.4,27.9,23.24,0,10-6,18.6-18,22.95v.3c12,2.4,21.75,11.4,21.75,25,0,15.6-12.15,29.25-35.55,29.25-11,0-20.55-3.45-25.35-6.6Z"/><path d="M180.27,49.7c-3.45,12.6-9.9,28.64-14.1,35.54l-8.4,1.05c3.3-8.85,7.2-24.44,8.85-35.24Z"/></svg>