<svg id="Calque_1" data-name="Calque 1" xmlns="http://www.w3.org/2000/svg" viewBox="0 0 200 200"><title>min45</title><path d="M53.82,152.44V125.89H8.52v-8.7L52,55H66.27v60.59H79.92v10.35H66.27v26.55Zm0-36.9V83c0-5.09.15-10.2.45-15.29h-.45c-3,5.7-5.4,9.89-8.1,14.39L21.87,115.24v.3Z"/><path d="M144.42,66.05h-37.2l-3.75,25a52.13,52.13,0,0,1,8-.6c7.5,0,15,1.65,21,5.25,7.65,4.35,14,12.75,14,25.05,0,19-15.15,33.3-36.3,33.3-10.65,0-19.65-3-24.3-6L89.07,138a43.66,43.66,0,0,0,20.85,5.4c12.45,0,23.1-8.1,23.1-21.15-.15-12.6-8.55-21.6-28.05-21.6a100.86,100.86,0,0,0-13.5,1L97.77,55h46.65Z"/><path d="M180.27,49.7c-3.45,12.6-9.9,28.64-14.1,35.54l-8.4,1.05c3.3-8.85,7.2-24.44,8.85-35.24Z"/></svg>