<svg id="Calque_1" data-name="Calque 1" xmlns="http://www.w3.org/2000/svg" viewBox="0 0 200 200"><title>min40</title><path d="M53.82,152.44V125.89H8.52v-8.7L52,55H66.27v60.59H79.92v10.35H66.27v26.55Zm0-36.9V83c0-5.09.15-10.2.45-15.29h-.45c-3,5.7-5.4,9.89-8.1,14.39L21.87,115.24v.3Z"/><path d="M151,102.64c0,33.15-12.3,51.45-33.9,51.45-19.05,0-31.95-17.85-32.25-50.1,0-32.69,14.1-50.69,33.9-50.69C139.32,53.3,151,71.6,151,102.64Zm-53,1.5c0,25.35,7.8,39.75,19.8,39.75,13.5,0,19.95-15.75,19.95-40.65,0-24-6.15-39.74-19.8-39.74C106.47,63.5,98.07,77.59,98.07,104.14Z"/><path d="M180.27,49.7c-3.45,12.6-9.9,28.64-14.1,35.54l-8.4,1.05c3.3-8.85,7.2-24.44,8.85-35.24Z"/></svg>