<svg id="Calque_1" data-name="Calque 1" xmlns="http://www.w3.org/2000/svg" viewBox="0 0 200 200"><title>min59</title><path d="M71.22,66.05H34l-3.75,25a52.13,52.13,0,0,1,8-.6c7.5,0,15,1.65,21,5.25,7.65,4.35,14,12.75,14,25.05,0,19-15.15,33.3-36.3,33.3-10.65,0-19.65-3-24.3-6L15.87,138a43.66,43.66,0,0,0,20.85,5.4c12.45,0,23.1-8.1,23.1-21.15-.15-12.6-8.55-21.6-28-21.6a100.86,100.86,0,0,0-13.5,1L24.57,55H71.22Z"/><path d="M93.87,143.14a55.08,55.08,0,0,0,10.65-.45,36.78,36.78,0,0,0,20.4-9.45c6.45-5.85,11.1-14.4,12.9-25.95h-.45c-5.4,6.6-13.2,10.5-23,10.5-17.55,0-28.8-13.2-28.8-29.85C85.62,69.5,99,53.3,118.92,53.3s32.25,16.2,32.25,41.09c0,21.45-7.2,36.45-16.8,45.75-7.5,7.35-17.85,11.85-28.35,13.05a61.48,61.48,0,0,1-12.15.75ZM98.67,87c0,12.15,7.35,20.7,18.75,20.7,8.85,0,15.75-4.35,19.2-10.2a8.71,8.71,0,0,0,1.2-4.8c0-16.64-6.15-29.39-19.95-29.39C106.62,63.35,98.67,73.25,98.67,87Z"/><path d="M180.27,49.7c-3.45,12.6-9.9,28.64-14.1,35.54l-8.4,1.05c3.3-8.85,7.2-24.44,8.85-35.24Z"/></svg>