<svg id="Calque_1" data-name="Calque 1" xmlns="http://www.w3.org/2000/svg" viewBox="0 0 200 200"><title>min53</title><path d="M71.22,66.05H34l-3.75,25a52.13,52.13,0,0,1,8-.6c7.5,0,15,1.65,21,5.25,7.65,4.35,14,12.75,14,25.05,0,19-15.15,33.3-36.3,33.3-10.65,0-19.65-3-24.3-6L15.87,138a43.66,43.66,0,0,0,20.85,5.4c12.45,0,23.1-8.1,23.1-21.15-.15-12.6-8.55-21.6-28-21.6a100.86,100.86,0,0,0-13.5,1L24.57,55H71.22Z"/><path d="M89.37,137.29a44.12,44.12,0,0,0,21.6,6.15c17,0,22.2-10.8,22.05-18.9-.15-13.65-12.45-19.5-25.2-19.5h-7.35v-9.9h7.35c9.6,0,21.75-5,21.75-16.49,0-7.8-4.95-14.7-17.1-14.7A35.81,35.81,0,0,0,93,70.4l-3.45-9.6c5.1-3.75,15-7.5,25.5-7.5,19.2,0,27.9,11.4,27.9,23.24,0,10-6,18.6-18,22.95v.3c12,2.4,21.75,11.4,21.75,25,0,15.6-12.15,29.25-35.55,29.25-11,0-20.55-3.45-25.35-6.6Z"/><path d="M180.27,49.7c-3.45,12.6-9.9,28.64-14.1,35.54l-8.4,1.05c3.3-8.85,7.2-24.44,8.85-35.24Z"/></svg>