<svg id="Calque_1" data-name="Calque 1" xmlns="http://www.w3.org/2000/svg" viewBox="0 0 200 200"><title>min56</title><path d="M71.22,66.05H34l-3.75,25a52.13,52.13,0,0,1,8-.6c7.5,0,15,1.65,21,5.25,7.65,4.35,14,12.75,14,25.05,0,19-15.15,33.3-36.3,33.3-10.65,0-19.65-3-24.3-6L15.87,138a43.66,43.66,0,0,0,20.85,5.4c12.45,0,23.1-8.1,23.1-21.15-.15-12.6-8.55-21.6-28-21.6a100.86,100.86,0,0,0-13.5,1L24.57,55H71.22Z"/><path d="M141.87,64.25a47.66,47.66,0,0,0-9.9.6c-20.7,3.45-31.65,18.59-33.9,34.64h.45a29.05,29.05,0,0,1,23.55-11.25c17.25,0,29.4,12.45,29.4,31.5,0,17.85-12.15,34.35-32.4,34.35-20.85,0-34.5-16.2-34.5-41.55,0-19.2,6.9-34.35,16.5-43.94,8.1-7.95,18.9-12.9,31.2-14.4a63.38,63.38,0,0,1,9.6-.75Zm-3.75,56.24c0-13.95-8-22.35-20.1-22.35-8,0-15.3,5-18.9,12a11.24,11.24,0,0,0-1.5,5.85c.3,16,7.65,27.9,21.45,27.9C130.47,143.89,138.12,134.44,138.12,120.49Z"/><path d="M180.27,49.7c-3.45,12.6-9.9,28.64-14.1,35.54l-8.4,1.05c3.3-8.85,7.2-24.44,8.85-35.24Z"/></svg>